<?xml version="1.0" encoding="UTF-8" standalone="no"?><svg xmlns="http://www.w3.org/2000/svg" xmlns:xlink="http://www.w3.org/1999/xlink" contentScriptType="application/ecmascript" contentStyleType="text/css" height="874px" preserveAspectRatio="none" style="width:566px;height:874px;background:#FFFFFF;" version="1.1" viewBox="0 0 566 874" width="566px" zoomAndPan="magnify"><defs><filter height="300%" id="fwluzqmo74j5v" width="300%" x="-1" y="-1"><feGaussianBlur result="blurOut" stdDeviation="2.0"/><feColorMatrix in="blurOut" result="blurOut2" type="matrix" values="0 0 0 0 0 0 0 0 0 0 0 0 0 0 0 0 0 0 .4 0"/><feOffset dx="4.0" dy="4.0" in="blurOut2" result="blurOut3"/><feBlend in="SourceGraphic" in2="blurOut3" mode="normal"/></filter></defs><g><ellipse cx="211" cy="20" fill="#000000" filter="url(#fwluzqmo74j5v)" rx="10" ry="10" style="stroke:none;stroke-width:1.0;"/><rect fill="#FFFFFF" filter="url(#fwluzqmo74j5v)" height="234.2031" style="stroke:#000000;stroke-width:2.0;" width="538" x="11" y="40"/><path d="M77,40 L77,49.2969 L67,59.2969 L11,59.2969 " fill="none" style="stroke:#000000;stroke-width:2.0;"/><text fill="#000000" font-family="sans-serif" font-size="14" lengthAdjust="spacing" textLength="56" x="14" y="53.9951">开发阶段</text><rect fill="#FEFECE" filter="url(#fwluzqmo74j5v)" height="33.9688" rx="12.5" ry="12.5" style="stroke:#A80036;stroke-width:1.5;" width="217" x="102.5" y="76.2969"/><text fill="#000000" font-family="sans-serif" font-size="12" lengthAdjust="spacing" textLength="197" x="112.5" y="97.4355">基于 master 分支拉取 feature 分支</text><path d="M421,188.6523 L421,197.2188 L401,201.2188 L421,205.2188 L421,213.7852 A0,0 0 0 0 421,213.7852 L521,213.7852 A0,0 0 0 0 521,213.7852 L521,198.6523 L511,188.6523 L421,188.6523 A0,0 0 0 0 421,188.6523 " fill="#FBFB77" filter="url(#fwluzqmo74j5v)" style="stroke:#A80036;stroke-width:1.0;"/><path d="M511,188.6523 L511,198.6523 L521,198.6523 L511,188.6523 " fill="#FBFB77" style="stroke:#A80036;stroke-width:1.0;"/><text fill="#000000" font-family="sans-serif" font-size="13" lengthAdjust="spacing" textLength="79" x="427" y="205.7192">rush change</text><rect fill="#FEFECE" filter="url(#fwluzqmo74j5v)" height="33.9688" rx="12.5" ry="12.5" style="stroke:#A80036;stroke-width:1.5;" width="380" x="21" y="184.2344"/><text fill="#000000" font-family="sans-serif" font-size="12" lengthAdjust="spacing" textLength="360" x="31" y="205.373">生成对应功能 changefile.json，推送至 codebase(feature 分支)</text><rect fill="#FEFECE" filter="url(#fwluzqmo74j5v)" height="33.9688" rx="12.5" ry="12.5" style="stroke:#A80036;stroke-width:1.5;" width="157" x="132.5" y="130.2656"/><text fill="#000000" font-family="sans-serif" font-size="12" lengthAdjust="spacing" textLength="137" x="142.5" y="151.4043">功能点开发(feature分支)</text><polygon fill="#FEFECE" filter="url(#fwluzqmo74j5v)" points="161.5,238.2031,260.5,238.2031,272.5,250.2031,260.5,262.2031,161.5,262.2031,149.5,250.2031,161.5,238.2031" style="stroke:#A80036;stroke-width:1.5;"/><text fill="#000000" font-family="sans-serif" font-size="11" lengthAdjust="spacing" textLength="99" x="161.5" y="254.0112">存在未完成功能点？</text><text fill="#000000" font-family="sans-serif" font-size="11" lengthAdjust="spacing" textLength="11" x="272.5" y="247.6089">是</text><rect fill="#FFFFFF" filter="url(#fwluzqmo74j5v)" height="330.98" style="stroke:#000000;stroke-width:2.0;" width="326" x="46.5" y="284.2031"/><path d="M112.5,284.2031 L112.5,293.5 L102.5,303.5 L46.5,303.5 " fill="none" style="stroke:#000000;stroke-width:2.0;"/><text fill="#000000" font-family="sans-serif" font-size="14" lengthAdjust="spacing" textLength="56" x="49.5" y="298.1982">测试阶段</text><rect fill="#FEFECE" filter="url(#fwluzqmo74j5v)" height="33.9688" rx="12.5" ry="12.5" style="stroke:#A80036;stroke-width:1.5;" width="261" x="80.5" y="320.5"/><text fill="#000000" font-family="sans-serif" font-size="12" lengthAdjust="spacing" textLength="241" x="90.5" y="341.6387">通过流水线发布测试版本(基于 feature 分支)</text><rect fill="#FEFECE" filter="url(#fwluzqmo74j5v)" height="33.9688" rx="12.5" ry="12.5" style="stroke:#A80036;stroke-width:1.5;" width="74" x="174" y="430.1792"/><text fill="#000000" font-family="sans-serif" font-size="12" lengthAdjust="spacing" textLength="54" x="184" y="451.3179">修复 BUG</text><rect fill="#FEFECE" filter="url(#fwluzqmo74j5v)" height="33.9688" rx="12.5" ry="12.5" style="stroke:#A80036;stroke-width:1.5;" width="261" x="80.5" y="493.2456"/><text fill="#000000" font-family="sans-serif" font-size="12" lengthAdjust="spacing" textLength="241" x="90.5" y="514.3843">通过流水线发布测试版本(基于 feature 分支)</text><polygon fill="#FEFECE" filter="url(#fwluzqmo74j5v)" points="180,374.4688,242,374.4688,254,386.4688,242,398.4688,180,398.4688,168,386.4688,180,374.4688" style="stroke:#A80036;stroke-width:1.5;"/><text fill="#000000" font-family="sans-serif" font-size="11" lengthAdjust="spacing" textLength="11" x="215" y="408.6792">是</text><text fill="#000000" font-family="sans-serif" font-size="11" lengthAdjust="spacing" textLength="62" x="180" y="390.2769">存在 BUG？</text><text fill="#000000" font-family="sans-serif" font-size="11" lengthAdjust="spacing" textLength="11" x="157" y="383.8745">否</text><rect fill="#FEFECE" filter="url(#fwluzqmo74j5v)" height="33.9688" rx="12.5" ry="12.5" style="stroke:#A80036;stroke-width:1.5;" width="44" x="189" y="569.2144"/><text fill="#000000" font-family="sans-serif" font-size="12" lengthAdjust="spacing" textLength="24" x="199" y="590.353">定版</text><rect fill="#FFFFFF" filter="url(#fwluzqmo74j5v)" height="190.2031" style="stroke:#000000;stroke-width:2.0;" width="281" x="70.5" y="625.1831"/><path d="M136.5,625.1831 L136.5,634.48 L126.5,644.48 L70.5,644.48 " fill="none" style="stroke:#000000;stroke-width:2.0;"/><text fill="#000000" font-family="sans-serif" font-size="14" lengthAdjust="spacing" textLength="56" x="73.5" y="639.1782">发布阶段</text><rect fill="#FEFECE" filter="url(#fwluzqmo74j5v)" height="33.9688" rx="12.5" ry="12.5" style="stroke:#A80036;stroke-width:1.5;" width="242" x="90" y="661.48"/><text fill="#000000" font-family="sans-serif" font-size="12" lengthAdjust="spacing" textLength="222" x="100" y="682.6187">新建 Merge Request 合入 master 分支</text><rect fill="#FEFECE" filter="url(#fwluzqmo74j5v)" height="33.9688" rx="12.5" ry="12.5" style="stroke:#A80036;stroke-width:1.5;" width="261" x="80.5" y="715.4487"/><text fill="#000000" font-family="sans-serif" font-size="12" lengthAdjust="spacing" textLength="241" x="90.5" y="736.5874">通过流水线发布正式版本(基于 feature 分支)</text><rect fill="#FEFECE" filter="url(#fwluzqmo74j5v)" height="33.9688" rx="12.5" ry="12.5" style="stroke:#A80036;stroke-width:1.5;" width="247" x="87.5" y="769.4175"/><text fill="#000000" font-family="sans-serif" font-size="12" lengthAdjust="spacing" textLength="227" x="97.5" y="790.5562">将正式包发布自动生成的 MR 合入 master</text><ellipse cx="211" cy="846.3862" fill="#FFFFFF" filter="url(#fwluzqmo74j5v)" rx="11" ry="11" style="stroke:#000000;stroke-width:1.0;"/><ellipse cx="211" cy="846.3862" fill="#000000" rx="6" ry="6" style="stroke:#7F7F7F;stroke-width:1.0;"/><line style="stroke:#A80036;stroke-width:1.5;" x1="211" x2="211" y1="164.2344" y2="184.2344"/><polygon fill="#A80036" points="207,174.2344,211,184.2344,215,174.2344,211,178.2344" style="stroke:#A80036;stroke-width:1.0;"/><line style="stroke:#A80036;stroke-width:1.5;" x1="272.5" x2="533" y1="250.2031" y2="250.2031"/><polygon fill="#A80036" points="529,208.7266,533,198.7266,537,208.7266,533,204.7266" style="stroke:#A80036;stroke-width:1.5;"/><line style="stroke:#A80036;stroke-width:1.5;" x1="533" x2="533" y1="147.25" y2="250.2031"/><line style="stroke:#A80036;stroke-width:1.5;" x1="533" x2="289.5" y1="147.25" y2="147.25"/><polygon fill="#A80036" points="299.5,143.25,289.5,147.25,299.5,151.25,295.5,147.25" style="stroke:#A80036;stroke-width:1.0;"/><line style="stroke:#A80036;stroke-width:1.5;" x1="211" x2="211" y1="218.2031" y2="238.2031"/><polygon fill="#A80036" points="207,228.2031,211,238.2031,215,228.2031,211,232.2031" style="stroke:#A80036;stroke-width:1.0;"/><line style="stroke:#A80036;stroke-width:1.5;" x1="211" x2="211" y1="110.2656" y2="130.2656"/><polygon fill="#A80036" points="207,120.2656,211,130.2656,215,120.2656,211,124.2656" style="stroke:#A80036;stroke-width:1.0;"/><line style="stroke:#A80036;stroke-width:1.5;" x1="211" x2="211" y1="30" y2="76.2969"/><polygon fill="#A80036" points="207,66.2969,211,76.2969,215,66.2969,211,70.2969" style="stroke:#A80036;stroke-width:1.0;"/><line style="stroke:#A80036;stroke-width:1.5;" x1="211" x2="211" y1="464.1479" y2="493.2456"/><polygon fill="#A80036" points="207,483.2456,211,493.2456,215,483.2456,211,487.2456" style="stroke:#A80036;stroke-width:1.0;"/><line style="stroke:#A80036;stroke-width:1.5;" x1="211" x2="211" y1="398.4688" y2="430.1792"/><polygon fill="#A80036" points="207,420.1792,211,430.1792,215,420.1792,211,424.1792" style="stroke:#A80036;stroke-width:1.0;"/><line style="stroke:#A80036;stroke-width:1.5;" x1="211" x2="211" y1="527.2144" y2="537.2144"/><line style="stroke:#A80036;stroke-width:1.5;" x1="211" x2="353.5" y1="537.2144" y2="537.2144"/><polygon fill="#A80036" points="349.5,473.2456,353.5,463.2456,357.5,473.2456,353.5,469.2456" style="stroke:#A80036;stroke-width:1.5;"/><line style="stroke:#A80036;stroke-width:1.5;" x1="353.5" x2="353.5" y1="386.4688" y2="537.2144"/><line style="stroke:#A80036;stroke-width:1.5;" x1="353.5" x2="254" y1="386.4688" y2="386.4688"/><polygon fill="#A80036" points="264,382.4688,254,386.4688,264,390.4688,260,386.4688" style="stroke:#A80036;stroke-width:1.0;"/><line style="stroke:#A80036;stroke-width:1.5;" x1="168" x2="68.5" y1="386.4688" y2="386.4688"/><polygon fill="#A80036" points="64.5,459.2456,68.5,469.2456,72.5,459.2456,68.5,463.2456" style="stroke:#A80036;stroke-width:1.5;"/><line style="stroke:#A80036;stroke-width:1.5;" x1="68.5" x2="68.5" y1="386.4688" y2="549.2144"/><line style="stroke:#A80036;stroke-width:1.5;" x1="68.5" x2="211" y1="549.2144" y2="549.2144"/><line style="stroke:#A80036;stroke-width:1.5;" x1="211" x2="211" y1="549.2144" y2="569.2144"/><polygon fill="#A80036" points="207,559.2144,211,569.2144,215,559.2144,211,563.2144" style="stroke:#A80036;stroke-width:1.0;"/><line style="stroke:#A80036;stroke-width:1.5;" x1="211" x2="211" y1="354.4688" y2="374.4688"/><polygon fill="#A80036" points="207,364.4688,211,374.4688,215,364.4688,211,368.4688" style="stroke:#A80036;stroke-width:1.0;"/><line style="stroke:#A80036;stroke-width:1.5;" x1="211" x2="211" y1="262.2031" y2="320.5"/><polygon fill="#A80036" points="207,310.5,211,320.5,215,310.5,211,314.5" style="stroke:#A80036;stroke-width:1.0;"/><line style="stroke:#A80036;stroke-width:1.5;" x1="211" x2="211" y1="695.4487" y2="715.4487"/><polygon fill="#A80036" points="207,705.4487,211,715.4487,215,705.4487,211,709.4487" style="stroke:#A80036;stroke-width:1.0;"/><line style="stroke:#A80036;stroke-width:1.5;" x1="211" x2="211" y1="749.4175" y2="769.4175"/><polygon fill="#A80036" points="207,759.4175,211,769.4175,215,759.4175,211,763.4175" style="stroke:#A80036;stroke-width:1.0;"/><line style="stroke:#A80036;stroke-width:1.5;" x1="211" x2="211" y1="603.1831" y2="661.48"/><polygon fill="#A80036" points="207,651.48,211,661.48,215,651.48,211,655.48" style="stroke:#A80036;stroke-width:1.0;"/><line style="stroke:#A80036;stroke-width:1.5;" x1="211" x2="211" y1="803.3862" y2="835.3862"/><polygon fill="#A80036" points="207,825.3862,211,835.3862,215,825.3862,211,829.3862" style="stroke:#A80036;stroke-width:1.0;"/><!--MD5=[567c49f7996c2500132f7642cfc161b2]
@startuml
start
partition 开发阶段 {
  :基于 master 分支拉取 feature 分支;
  repeat :功能点开发(feature分支);
  :生成对应功能 changefile.json，推送至 codebase(feature 分支);
  note right
  rush change
  end note
  repeat while(存在未完成功能点？) is (是)
}
partition 测试阶段 {
  :通过流水线发布测试版本(基于 feature 分支);
  while(存在 BUG？) is (是)
  :修复 BUG;
  :通过流水线发布测试版本(基于 feature 分支);
  end while(否)
  :定版;
}
partition 发布阶段 {
  :新建 Merge Request 合入 master 分支;
  :通过流水线发布正式版本(基于 feature 分支);
  :将正式包发布自动生成的 MR 合入 master;
}
stop
@enduml

PlantUML version 1.2021.15beta3(Unknown compile time)
(GPL source distribution)
Java Runtime: Java(TM) SE Runtime Environment
JVM: Java HotSpot(TM) 64-Bit Server VM
Default Encoding: UTF-8
Language: en
Country: US
--></g></svg>