<?xml version="1.0" encoding="UTF-8" standalone="no"?><svg xmlns="http://www.w3.org/2000/svg" xmlns:xlink="http://www.w3.org/1999/xlink" contentScriptType="application/ecmascript" contentStyleType="text/css" height="928px" preserveAspectRatio="none" style="width:496px;height:928px;background:#FFFFFF;" version="1.1" viewBox="0 0 496 928" width="496px" zoomAndPan="magnify"><defs><filter height="300%" id="f1e7zrw9f2x5k4" width="300%" x="-1" y="-1"><feGaussianBlur result="blurOut" stdDeviation="2.0"/><feColorMatrix in="blurOut" result="blurOut2" type="matrix" values="0 0 0 0 0 0 0 0 0 0 0 0 0 0 0 0 0 0 .4 0"/><feOffset dx="4.0" dy="4.0" in="blurOut2" result="blurOut3"/><feBlend in="SourceGraphic" in2="blurOut3" mode="normal"/></filter></defs><g><ellipse cx="185" cy="20" fill="#000000" filter="url(#f1e7zrw9f2x5k4)" rx="10" ry="10" style="stroke:none;stroke-width:1.0;"/><rect fill="#FFFFFF" filter="url(#f1e7zrw9f2x5k4)" height="234.2031" style="stroke:#000000;stroke-width:2.0;" width="322" x="36" y="40"/><path d="M102,40 L102,49.2969 L92,59.2969 L36,59.2969 " fill="none" style="stroke:#000000;stroke-width:2.0;"/><text fill="#000000" font-family="sans-serif" font-size="14" lengthAdjust="spacing" textLength="56" x="39" y="53.9951">开发阶段</text><rect fill="#FEFECE" filter="url(#f1e7zrw9f2x5k4)" height="33.9688" rx="12.5" ry="12.5" style="stroke:#A80036;stroke-width:1.5;" width="217" x="76.5" y="76.2969"/><text fill="#000000" font-family="sans-serif" font-size="12" lengthAdjust="spacing" textLength="197" x="86.5" y="97.4355">基于 master 分支拉取 feature 分支</text><rect fill="#FEFECE" filter="url(#f1e7zrw9f2x5k4)" height="33.9688" rx="12.5" ry="12.5" style="stroke:#A80036;stroke-width:1.5;" width="278" x="46" y="184.2344"/><text fill="#000000" font-family="sans-serif" font-size="12" lengthAdjust="spacing" textLength="258" x="56" y="205.373">细粒度新建 Merge Request 合入 master 分支</text><rect fill="#FEFECE" filter="url(#f1e7zrw9f2x5k4)" height="33.9688" rx="12.5" ry="12.5" style="stroke:#A80036;stroke-width:1.5;" width="145" x="112.5" y="130.2656"/><text fill="#000000" font-family="sans-serif" font-size="12" lengthAdjust="spacing" textLength="125" x="122.5" y="151.4043">功能开发(feature分支)</text><polygon fill="#FEFECE" filter="url(#f1e7zrw9f2x5k4)" points="135.5,238.2031,234.5,238.2031,246.5,250.2031,234.5,262.2031,135.5,262.2031,123.5,250.2031,135.5,238.2031" style="stroke:#A80036;stroke-width:1.5;"/><text fill="#000000" font-family="sans-serif" font-size="11" lengthAdjust="spacing" textLength="99" x="135.5" y="254.0112">存在未完成功能点？</text><rect fill="#FFFFFF" filter="url(#f1e7zrw9f2x5k4)" height="438.9175" style="stroke:#000000;stroke-width:2.0;" width="468" x="11" y="284.2031"/><path d="M77,284.2031 L77,293.5 L67,303.5 L11,303.5 " fill="none" style="stroke:#000000;stroke-width:2.0;"/><text fill="#000000" font-family="sans-serif" font-size="14" lengthAdjust="spacing" textLength="56" x="14" y="298.1982">测试阶段</text><path d="M369,324.918 L369,333.4844 L349,337.4844 L369,341.4844 L369,350.0508 A0,0 0 0 0 369,350.0508 L469,350.0508 A0,0 0 0 0 469,350.0508 L469,334.918 L459,324.918 L369,324.918 A0,0 0 0 0 369,324.918 " fill="#FBFB77" filter="url(#f1e7zrw9f2x5k4)" style="stroke:#A80036;stroke-width:1.0;"/><path d="M459,324.918 L459,334.918 L469,334.918 L459,324.918 " fill="#FBFB77" style="stroke:#A80036;stroke-width:1.0;"/><text fill="#000000" font-family="sans-serif" font-size="13" lengthAdjust="spacing" textLength="79" x="375" y="341.9849">rush change</text><rect fill="#FEFECE" filter="url(#f1e7zrw9f2x5k4)" height="33.9688" rx="12.5" ry="12.5" style="stroke:#A80036;stroke-width:1.5;" width="328" x="21" y="320.5"/><text fill="#000000" font-family="sans-serif" font-size="12" lengthAdjust="spacing" textLength="308" x="31" y="341.6387">生成 changefile.json，推送至 codebase(feature分支)</text><rect fill="#FEFECE" filter="url(#f1e7zrw9f2x5k4)" height="33.9688" rx="12.5" ry="12.5" style="stroke:#A80036;stroke-width:1.5;" width="176" x="97" y="374.4688"/><text fill="#000000" font-family="sans-serif" font-size="12" lengthAdjust="spacing" textLength="156" x="107" y="395.6074">通过流水线自动发布测试版本</text><rect fill="#FEFECE" filter="url(#f1e7zrw9f2x5k4)" height="33.9688" rx="12.5" ry="12.5" style="stroke:#A80036;stroke-width:1.5;" width="74" x="148" y="484.1479"/><text fill="#000000" font-family="sans-serif" font-size="12" lengthAdjust="spacing" textLength="54" x="158" y="505.2866">修复 BUG</text><rect fill="#FEFECE" filter="url(#f1e7zrw9f2x5k4)" height="33.9688" rx="12.5" ry="12.5" style="stroke:#A80036;stroke-width:1.5;" width="176" x="97" y="547.2144"/><text fill="#000000" font-family="sans-serif" font-size="12" lengthAdjust="spacing" textLength="156" x="107" y="568.353">通过流水线自动发布测试版本</text><polygon fill="#FEFECE" filter="url(#f1e7zrw9f2x5k4)" points="154,428.4375,216,428.4375,228,440.4375,216,452.4375,154,452.4375,142,440.4375,154,428.4375" style="stroke:#A80036;stroke-width:1.5;"/><text fill="#000000" font-family="sans-serif" font-size="11" lengthAdjust="spacing" textLength="11" x="189" y="462.6479">是</text><text fill="#000000" font-family="sans-serif" font-size="11" lengthAdjust="spacing" textLength="62" x="154" y="444.2456">存在 BUG？</text><text fill="#000000" font-family="sans-serif" font-size="11" lengthAdjust="spacing" textLength="11" x="131" y="437.8433">否</text><rect fill="#FEFECE" filter="url(#f1e7zrw9f2x5k4)" height="33.9688" rx="12.5" ry="12.5" style="stroke:#A80036;stroke-width:1.5;" width="44" x="163" y="623.1831"/><text fill="#000000" font-family="sans-serif" font-size="12" lengthAdjust="spacing" textLength="24" x="173" y="644.3218">定版</text><rect fill="#FEFECE" filter="url(#f1e7zrw9f2x5k4)" height="33.9688" rx="12.5" ry="12.5" style="stroke:#A80036;stroke-width:1.5;" width="242" x="64" y="677.1519"/><text fill="#000000" font-family="sans-serif" font-size="12" lengthAdjust="spacing" textLength="222" x="74" y="698.2905">新建 Merge Request 合入 master 分支</text><rect fill="#FFFFFF" filter="url(#f1e7zrw9f2x5k4)" height="136.2344" style="stroke:#000000;stroke-width:2.0;" width="267" x="51.5" y="733.1206"/><path d="M117.5,733.1206 L117.5,742.4175 L107.5,752.4175 L51.5,752.4175 " fill="none" style="stroke:#000000;stroke-width:2.0;"/><text fill="#000000" font-family="sans-serif" font-size="14" lengthAdjust="spacing" textLength="56" x="54.5" y="747.1157">发布阶段</text><rect fill="#FEFECE" filter="url(#f1e7zrw9f2x5k4)" height="33.9688" rx="12.5" ry="12.5" style="stroke:#A80036;stroke-width:1.5;" width="176" x="97" y="769.4175"/><text fill="#000000" font-family="sans-serif" font-size="12" lengthAdjust="spacing" textLength="156" x="107" y="790.5562">通过流水线自动发布正式版本</text><rect fill="#FEFECE" filter="url(#f1e7zrw9f2x5k4)" height="33.9688" rx="12.5" ry="12.5" style="stroke:#A80036;stroke-width:1.5;" width="247" x="61.5" y="823.3862"/><text fill="#000000" font-family="sans-serif" font-size="12" lengthAdjust="spacing" textLength="227" x="71.5" y="844.5249">将正式包发布自动生成的 MR 合入 master</text><ellipse cx="185" cy="900.355" fill="#FFFFFF" filter="url(#f1e7zrw9f2x5k4)" rx="11" ry="11" style="stroke:#000000;stroke-width:1.0;"/><ellipse cx="185" cy="900.355" fill="#000000" rx="6" ry="6" style="stroke:#7F7F7F;stroke-width:1.0;"/><line style="stroke:#A80036;stroke-width:1.5;" x1="185" x2="185" y1="164.2344" y2="184.2344"/><polygon fill="#A80036" points="181,174.2344,185,184.2344,189,174.2344,185,178.2344" style="stroke:#A80036;stroke-width:1.0;"/><line style="stroke:#A80036;stroke-width:1.5;" x1="246.5" x2="336" y1="250.2031" y2="250.2031"/><polygon fill="#A80036" points="332,208.7266,336,198.7266,340,208.7266,336,204.7266" style="stroke:#A80036;stroke-width:1.5;"/><line style="stroke:#A80036;stroke-width:1.5;" x1="336" x2="336" y1="147.25" y2="250.2031"/><line style="stroke:#A80036;stroke-width:1.5;" x1="336" x2="257.5" y1="147.25" y2="147.25"/><polygon fill="#A80036" points="267.5,143.25,257.5,147.25,267.5,151.25,263.5,147.25" style="stroke:#A80036;stroke-width:1.0;"/><line style="stroke:#A80036;stroke-width:1.5;" x1="185" x2="185" y1="218.2031" y2="238.2031"/><polygon fill="#A80036" points="181,228.2031,185,238.2031,189,228.2031,185,232.2031" style="stroke:#A80036;stroke-width:1.0;"/><line style="stroke:#A80036;stroke-width:1.5;" x1="185" x2="185" y1="110.2656" y2="130.2656"/><polygon fill="#A80036" points="181,120.2656,185,130.2656,189,120.2656,185,124.2656" style="stroke:#A80036;stroke-width:1.0;"/><line style="stroke:#A80036;stroke-width:1.5;" x1="185" x2="185" y1="30" y2="76.2969"/><polygon fill="#A80036" points="181,66.2969,185,76.2969,189,66.2969,185,70.2969" style="stroke:#A80036;stroke-width:1.0;"/><line style="stroke:#A80036;stroke-width:1.5;" x1="185" x2="185" y1="354.4688" y2="374.4688"/><polygon fill="#A80036" points="181,364.4688,185,374.4688,189,364.4688,185,368.4688" style="stroke:#A80036;stroke-width:1.0;"/><line style="stroke:#A80036;stroke-width:1.5;" x1="185" x2="185" y1="518.1167" y2="547.2144"/><polygon fill="#A80036" points="181,537.2144,185,547.2144,189,537.2144,185,541.2144" style="stroke:#A80036;stroke-width:1.0;"/><line style="stroke:#A80036;stroke-width:1.5;" x1="185" x2="185" y1="452.4375" y2="484.1479"/><polygon fill="#A80036" points="181,474.1479,185,484.1479,189,474.1479,185,478.1479" style="stroke:#A80036;stroke-width:1.0;"/><line style="stroke:#A80036;stroke-width:1.5;" x1="185" x2="185" y1="581.1831" y2="591.1831"/><line style="stroke:#A80036;stroke-width:1.5;" x1="185" x2="285" y1="591.1831" y2="591.1831"/><polygon fill="#A80036" points="281,527.2144,285,517.2144,289,527.2144,285,523.2144" style="stroke:#A80036;stroke-width:1.5;"/><line style="stroke:#A80036;stroke-width:1.5;" x1="285" x2="285" y1="440.4375" y2="591.1831"/><line style="stroke:#A80036;stroke-width:1.5;" x1="285" x2="228" y1="440.4375" y2="440.4375"/><polygon fill="#A80036" points="238,436.4375,228,440.4375,238,444.4375,234,440.4375" style="stroke:#A80036;stroke-width:1.0;"/><line style="stroke:#A80036;stroke-width:1.5;" x1="142" x2="85" y1="440.4375" y2="440.4375"/><polygon fill="#A80036" points="81,513.2144,85,523.2144,89,513.2144,85,517.2144" style="stroke:#A80036;stroke-width:1.5;"/><line style="stroke:#A80036;stroke-width:1.5;" x1="85" x2="85" y1="440.4375" y2="603.1831"/><line style="stroke:#A80036;stroke-width:1.5;" x1="85" x2="185" y1="603.1831" y2="603.1831"/><line style="stroke:#A80036;stroke-width:1.5;" x1="185" x2="185" y1="603.1831" y2="623.1831"/><polygon fill="#A80036" points="181,613.1831,185,623.1831,189,613.1831,185,617.1831" style="stroke:#A80036;stroke-width:1.0;"/><line style="stroke:#A80036;stroke-width:1.5;" x1="185" x2="185" y1="408.4375" y2="428.4375"/><polygon fill="#A80036" points="181,418.4375,185,428.4375,189,418.4375,185,422.4375" style="stroke:#A80036;stroke-width:1.0;"/><line style="stroke:#A80036;stroke-width:1.5;" x1="185" x2="185" y1="657.1519" y2="677.1519"/><polygon fill="#A80036" points="181,667.1519,185,677.1519,189,667.1519,185,671.1519" style="stroke:#A80036;stroke-width:1.0;"/><line style="stroke:#A80036;stroke-width:1.5;" x1="185" x2="185" y1="262.2031" y2="320.5"/><polygon fill="#A80036" points="181,310.5,185,320.5,189,310.5,185,314.5" style="stroke:#A80036;stroke-width:1.0;"/><line style="stroke:#A80036;stroke-width:1.5;" x1="185" x2="185" y1="803.3862" y2="823.3862"/><polygon fill="#A80036" points="181,813.3862,185,823.3862,189,813.3862,185,817.3862" style="stroke:#A80036;stroke-width:1.0;"/><line style="stroke:#A80036;stroke-width:1.5;" x1="185" x2="185" y1="711.1206" y2="769.4175"/><polygon fill="#A80036" points="181,759.4175,185,769.4175,189,759.4175,185,763.4175" style="stroke:#A80036;stroke-width:1.0;"/><line style="stroke:#A80036;stroke-width:1.5;" x1="185" x2="185" y1="857.355" y2="889.355"/><polygon fill="#A80036" points="181,879.355,185,889.355,189,879.355,185,883.355" style="stroke:#A80036;stroke-width:1.0;"/><!--MD5=[be12c97bbf7979a523310a12715b2d08]
@startuml
start
partition 开发阶段 {
  :基于 master 分支拉取 feature 分支;
  repeat :功能开发(feature分支);
  :细粒度新建 Merge Request 合入 master 分支;
  repeat while(存在未完成功能点？)
}
partition 测试阶段 {
  :生成 changefile.json，推送至 codebase(feature分支);
  note right
  rush change
  end note
  :通过流水线自动发布测试版本;
  while(存在 BUG？) is (是)
  :修复 BUG;
  :通过流水线自动发布测试版本;
  end while(否)
  :定版;
  :新建 Merge Request 合入 master 分支;
}
partition 发布阶段 {
  :通过流水线自动发布正式版本;
  :将正式包发布自动生成的 MR 合入 master;
}
stop
@enduml

PlantUML version 1.2021.13beta8(Unknown compile time)
(GPL source distribution)
Java Runtime: Java(TM) SE Runtime Environment
JVM: Java HotSpot(TM) 64-Bit Server VM
Default Encoding: UTF-8
Language: en
Country: US
--></g></svg>