<?xml version="1.0" encoding="UTF-8" standalone="no"?><svg xmlns="http://www.w3.org/2000/svg" xmlns:xlink="http://www.w3.org/1999/xlink" contentScriptType="application/ecmascript" contentStyleType="text/css" height="893px" preserveAspectRatio="none" style="width:1721px;height:893px;background:#FFFFFF;" version="1.1" viewBox="0 0 1721 893" width="1721px" zoomAndPan="magnify"><defs><filter height="300%" id="fhnmnnaaiha60" width="300%" x="-1" y="-1"><feGaussianBlur result="blurOut" stdDeviation="2.0"/><feColorMatrix in="blurOut" result="blurOut2" type="matrix" values="0 0 0 0 0 0 0 0 0 0 0 0 0 0 0 0 0 0 .4 0"/><feOffset dx="4.0" dy="4.0" in="blurOut2" result="blurOut3"/><feBlend in="SourceGraphic" in2="blurOut3" mode="normal"/></filter></defs><g><ellipse cx="169.5" cy="48.6982" fill="#000000" filter="url(#fhnmnnaaiha60)" rx="10" ry="10" style="stroke:none;stroke-width:1.0;"/><path d="M338,83.1162 L338,91.6826 L318,95.6826 L338,99.6826 L338,108.249 A0,0 0 0 0 338,108.249 L438,108.249 A0,0 0 0 0 438,108.249 L438,93.1162 L428,83.1162 L338,83.1162 A0,0 0 0 0 338,83.1162 " fill="#FBFB77" filter="url(#fhnmnnaaiha60)" style="stroke:#A80036;stroke-width:1.0;"/><path d="M428,83.1162 L428,93.1162 L438,93.1162 L428,83.1162 " fill="#FBFB77" style="stroke:#A80036;stroke-width:1.0;"/><text fill="#000000" font-family="sans-serif" font-size="13" lengthAdjust="spacing" textLength="79" x="344" y="100.1831">rush change</text><rect fill="#FEFECE" filter="url(#fhnmnnaaiha60)" height="33.9688" rx="12.5" ry="12.5" style="stroke:#A80036;stroke-width:1.5;" width="297" x="21" y="78.6982"/><text fill="#000000" font-family="sans-serif" font-size="12" lengthAdjust="spacing" textLength="277" x="31" y="99.8369">Generate changefile.json to codebase/master</text><rect fill="#FEFECE" filter="url(#fhnmnnaaiha60)" height="33.9688" rx="12.5" ry="12.5" style="stroke:#A80036;stroke-width:1.5;" width="166" x="86.5" y="132.667"/><text fill="#000000" font-family="sans-serif" font-size="12" lengthAdjust="spacing" textLength="146" x="96.5" y="153.8057">Trigger Release Pipeline</text><line style="stroke:#000000;stroke-width:2.0;" x1="15" x2="15" y1="12.7451" y2="876.917"/><rect fill="#FFFFFF" filter="url(#fhnmnnaaiha60)" height="244.1719" style="stroke:#000000;stroke-width:2.0;" width="559" x="673.5" y="176.6357"/><path d="M772.5,176.6357 L772.5,185.9326 L762.5,195.9326 L673.5,195.9326 " fill="none" style="stroke:#000000;stroke-width:2.0;"/><text fill="#000000" font-family="sans-serif" font-size="14" lengthAdjust="spacing" textLength="89" x="676.5" y="190.6309">Initialization</text><rect fill="#FEFECE" filter="url(#fhnmnnaaiha60)" height="33.9688" rx="12.5" ry="12.5" style="stroke:#A80036;stroke-width:1.5;" width="121" x="757.5" y="212.9326"/><text fill="#000000" font-family="sans-serif" font-size="12" lengthAdjust="spacing" textLength="101" x="767.5" y="234.0713">Clone repository</text><path d="M918.5,271.3193 L918.5,279.8857 L898.5,283.8857 L918.5,287.8857 L918.5,296.4521 A0,0 0 0 0 918.5,296.4521 L1154.5,296.4521 A0,0 0 0 0 1154.5,296.4521 L1154.5,281.3193 L1144.5,271.3193 L918.5,271.3193 A0,0 0 0 0 918.5,271.3193 " fill="#FBFB77" filter="url(#fhnmnnaaiha60)" style="stroke:#A80036;stroke-width:1.0;"/><path d="M1144.5,271.3193 L1144.5,281.3193 L1154.5,281.3193 L1144.5,271.3193 " fill="#FBFB77" style="stroke:#A80036;stroke-width:1.0;"/><text fill="#000000" font-family="sans-serif" font-size="13" lengthAdjust="spacing" textLength="215" x="924.5" y="288.3862">common/changes/changefile.json</text><rect fill="#FEFECE" filter="url(#fhnmnnaaiha60)" height="33.9688" rx="12.5" ry="12.5" style="stroke:#A80036;stroke-width:1.5;" width="161" x="737.5" y="266.9014"/><text fill="#000000" font-family="sans-serif" font-size="12" lengthAdjust="spacing" textLength="141" x="747.5" y="288.04">Select target packages</text><path d="M972.5,325.2881 L972.5,333.8545 L952.5,337.8545 L972.5,341.8545 L972.5,350.4209 A0,0 0 0 0 972.5,350.4209 L1222.5,350.4209 A0,0 0 0 0 1222.5,350.4209 L1222.5,335.2881 L1212.5,325.2881 L972.5,325.2881 A0,0 0 0 0 972.5,325.2881 " fill="#FBFB77" filter="url(#fhnmnnaaiha60)" style="stroke:#A80036;stroke-width:1.0;"/><path d="M1212.5,325.2881 L1212.5,335.2881 L1222.5,335.2881 L1212.5,325.2881 " fill="#FBFB77" style="stroke:#A80036;stroke-width:1.0;"/><text fill="#000000" font-family="sans-serif" font-size="13" lengthAdjust="spacing" textLength="229" x="978.5" y="342.355">rush install -t package1 -t package2</text><rect fill="#FEFECE" filter="url(#fhnmnnaaiha60)" height="33.9688" rx="12.5" ry="12.5" style="stroke:#A80036;stroke-width:1.5;" width="269" x="683.5" y="320.8701"/><text fill="#000000" font-family="sans-serif" font-size="12" lengthAdjust="spacing" textLength="249" x="693.5" y="342.0088">Install dependencies for target packages</text><path d="M914,379.2568 L914,387.8232 L894,391.8232 L914,395.8232 L914,404.3896 A0,0 0 0 0 914,404.3896 L1157,404.3896 A0,0 0 0 0 1157,404.3896 L1157,389.2568 L1147,379.2568 L914,379.2568 A0,0 0 0 0 914,379.2568 " fill="#FBFB77" filter="url(#fhnmnnaaiha60)" style="stroke:#A80036;stroke-width:1.0;"/><path d="M1147,379.2568 L1147,389.2568 L1157,389.2568 L1147,379.2568 " fill="#FBFB77" style="stroke:#A80036;stroke-width:1.0;"/><text fill="#000000" font-family="sans-serif" font-size="13" lengthAdjust="spacing" textLength="222" x="920" y="396.3237">rush build -t package1 -t package2</text><rect fill="#FEFECE" filter="url(#fhnmnnaaiha60)" height="33.9688" rx="12.5" ry="12.5" style="stroke:#A80036;stroke-width:1.5;" width="152" x="742" y="374.8389"/><text fill="#000000" font-family="sans-serif" font-size="12" lengthAdjust="spacing" textLength="132" x="752" y="395.9775">Build target packages</text><rect fill="#FEFECE" filter="url(#fhnmnnaaiha60)" height="33.9688" rx="12.5" ry="12.5" style="stroke:#A80036;stroke-width:1.5;" width="161" x="737.5" y="440.8076"/><text fill="#000000" font-family="sans-serif" font-size="12" lengthAdjust="spacing" textLength="141" x="747.5" y="461.9463">Checkout a new Branch</text><rect fill="#FFFFFF" filter="url(#fhnmnnaaiha60)" height="136.2344" style="stroke:#000000;stroke-width:2.0;" width="457" x="589.5" y="484.7764"/><path d="M695.5,484.7764 L695.5,494.0732 L685.5,504.0732 L589.5,504.0732 " fill="none" style="stroke:#000000;stroke-width:2.0;"/><text fill="#000000" font-family="sans-serif" font-size="14" lengthAdjust="spacing" textLength="96" x="592.5" y="498.7715">VersionBump</text><rect fill="#FEFECE" filter="url(#fhnmnnaaiha60)" height="33.9688" rx="12.5" ry="12.5" style="stroke:#A80036;stroke-width:1.5;" width="437" x="599.5" y="521.0732"/><text fill="#000000" font-family="sans-serif" font-size="12" lengthAdjust="spacing" textLength="417" x="609.5" y="542.2119">Deleting change files and updating change logs for package updates</text><path d="M607.5,579.46 L607.5,604.5928 L707.5,604.5928 L707.5,589.46 L697.5,579.46 L607.5,579.46 " fill="#FBFB77" filter="url(#fhnmnnaaiha60)" style="stroke:#A80036;stroke-width:1.0;"/><path d="M697.5,579.46 L697.5,589.46 L707.5,589.46 L697.5,579.46 " fill="#FBFB77" style="stroke:#A80036;stroke-width:1.0;"/><text fill="#000000" font-family="sans-serif" font-size="13" lengthAdjust="spacing" textLength="79" x="613.5" y="596.5269">rush version</text><rect fill="#FEFECE" filter="url(#fhnmnnaaiha60)" height="33.9688" rx="12.5" ry="12.5" style="stroke:#A80036;stroke-width:1.5;" width="181" x="727.5" y="575.042"/><text fill="#000000" font-family="sans-serif" font-size="12" lengthAdjust="spacing" textLength="161" x="737.5" y="596.1807">Applying package updates</text><rect fill="#FEFECE" filter="url(#fhnmnnaaiha60)" height="33.9688" rx="12.5" ry="12.5" style="stroke:#A80036;stroke-width:1.5;" width="111" x="762.5" y="641.0107"/><text fill="#000000" font-family="sans-serif" font-size="12" lengthAdjust="spacing" textLength="91" x="772.5" y="662.1494">Update lockfile</text><rect fill="#000000" filter="url(#fhnmnnaaiha60)" height="6" rx="2.5" ry="2.5" style="stroke:#000000;stroke-width:1.0;" width="740" x="449" y="694.9795"/><path d="M461,725.3975 L461,750.5303 A0,0 0 0 0 461,750.5303 L559,750.5303 A0,0 0 0 0 559,750.5303 L559,743.3975 L579,737.9639 L559,735.3975 L559,735.3975 L549,725.3975 L461,725.3975 A0,0 0 0 0 461,725.3975 " fill="#FBFB77" filter="url(#fhnmnnaaiha60)" style="stroke:#A80036;stroke-width:1.0;"/><path d="M549,725.3975 L549,735.3975 L559,735.3975 L549,725.3975 " fill="#FBFB77" style="stroke:#A80036;stroke-width:1.0;"/><text fill="#000000" font-family="sans-serif" font-size="13" lengthAdjust="spacing" textLength="77" x="467" y="742.4644">rush publish</text><rect fill="#FEFECE" filter="url(#fhnmnnaaiha60)" height="33.9688" rx="12.5" ry="12.5" style="stroke:#A80036;stroke-width:1.5;" width="168" x="579" y="720.9795"/><text fill="#000000" font-family="sans-serif" font-size="12" lengthAdjust="spacing" textLength="148" x="589" y="742.1182">Publish packages to NPM</text><rect fill="#FEFECE" filter="url(#fhnmnnaaiha60)" height="33.9688" rx="12.5" ry="12.5" style="stroke:#A80036;stroke-width:1.5;" width="224" x="775" y="720.9795"/><text fill="#000000" font-family="sans-serif" font-size="12" lengthAdjust="spacing" textLength="204" x="785" y="742.1182">New Merge Request to Codebase</text><rect fill="#FEFECE" filter="url(#fhnmnnaaiha60)" height="33.9688" rx="12.5" ry="12.5" style="stroke:#A80036;stroke-width:1.5;" width="148" x="1027" y="720.9795"/><text fill="#000000" font-family="sans-serif" font-size="12" lengthAdjust="spacing" textLength="128" x="1037" y="742.1182">Message to IM group</text><line style="stroke:#000000;stroke-width:2.0;" x1="443" x2="443" y1="12.7451" y2="876.917"/><rect fill="#FEFECE" filter="url(#fhnmnnaaiha60)" height="33.9688" rx="12.5" ry="12.5" style="stroke:#A80036;stroke-width:1.5;" width="127" x="1248.5" y="774.9482"/><text fill="#000000" font-family="sans-serif" font-size="12" lengthAdjust="spacing" textLength="107" x="1258.5" y="796.0869">Update packages</text><line style="stroke:#000000;stroke-width:2.0;" x1="1242.5" x2="1242.5" y1="12.7451" y2="876.917"/><rect fill="#FEFECE" filter="url(#fhnmnnaaiha60)" height="33.9688" rx="12.5" ry="12.5" style="stroke:#A80036;stroke-width:1.5;" width="133" x="1391.5" y="774.9482"/><text fill="#000000" font-family="sans-serif" font-size="12" lengthAdjust="spacing" textLength="113" x="1401.5" y="796.0869">Review and merge</text><line style="stroke:#000000;stroke-width:2.0;" x1="1385.5" x2="1385.5" y1="12.7451" y2="876.917"/><rect fill="#FEFECE" filter="url(#fhnmnnaaiha60)" height="33.9688" rx="12.5" ry="12.5" style="stroke:#A80036;stroke-width:1.5;" width="95" x="1584.5" y="774.9482"/><text fill="#000000" font-family="sans-serif" font-size="12" lengthAdjust="spacing" textLength="75" x="1594.5" y="796.0869">Check result</text><rect fill="#000000" filter="url(#fhnmnnaaiha60)" height="6" rx="2.5" ry="2.5" style="stroke:#000000;stroke-width:1.0;" width="151" x="1540.5" y="828.917"/><ellipse cx="1563.5" cy="865.917" fill="#FFFFFF" filter="url(#fhnmnnaaiha60)" rx="11" ry="11" style="stroke:#000000;stroke-width:1.0;"/><ellipse cx="1563.5" cy="865.917" fill="#000000" rx="6" ry="6" style="stroke:#7F7F7F;stroke-width:1.0;"/><line style="stroke:#000000;stroke-width:2.0;" x1="1534.5" x2="1534.5" y1="12.7451" y2="876.917"/><line style="stroke:#000000;stroke-width:2.0;" x1="1701.5" x2="1701.5" y1="12.7451" y2="876.917"/><line style="stroke:#A80036;stroke-width:1.5;" x1="169.5" x2="169.5" y1="58.6982" y2="78.6982"/><polygon fill="#A80036" points="165.5,68.6982,169.5,78.6982,173.5,68.6982,169.5,72.6982" style="stroke:#A80036;stroke-width:1.0;"/><line style="stroke:#A80036;stroke-width:1.5;" x1="169.5" x2="169.5" y1="112.667" y2="132.667"/><polygon fill="#A80036" points="165.5,122.667,169.5,132.667,173.5,122.667,169.5,126.667" style="stroke:#A80036;stroke-width:1.0;"/><line style="stroke:#A80036;stroke-width:1.5;" x1="818" x2="818" y1="246.9014" y2="266.9014"/><polygon fill="#A80036" points="814,256.9014,818,266.9014,822,256.9014,818,260.9014" style="stroke:#A80036;stroke-width:1.0;"/><line style="stroke:#A80036;stroke-width:1.5;" x1="818" x2="818" y1="300.8701" y2="320.8701"/><polygon fill="#A80036" points="814,310.8701,818,320.8701,822,310.8701,818,314.8701" style="stroke:#A80036;stroke-width:1.0;"/><line style="stroke:#A80036;stroke-width:1.5;" x1="818" x2="818" y1="354.8389" y2="374.8389"/><polygon fill="#A80036" points="814,364.8389,818,374.8389,822,364.8389,818,368.8389" style="stroke:#A80036;stroke-width:1.0;"/><line style="stroke:#A80036;stroke-width:1.5;" x1="818" x2="818" y1="408.8076" y2="440.8076"/><polygon fill="#A80036" points="814,430.8076,818,440.8076,822,430.8076,818,434.8076" style="stroke:#A80036;stroke-width:1.0;"/><line style="stroke:#A80036;stroke-width:1.5;" x1="818" x2="818" y1="555.042" y2="575.042"/><polygon fill="#A80036" points="814,565.042,818,575.042,822,565.042,818,569.042" style="stroke:#A80036;stroke-width:1.0;"/><line style="stroke:#A80036;stroke-width:1.5;" x1="818" x2="818" y1="474.7764" y2="521.0732"/><polygon fill="#A80036" points="814,511.0732,818,521.0732,822,511.0732,818,515.0732" style="stroke:#A80036;stroke-width:1.0;"/><line style="stroke:#A80036;stroke-width:1.5;" x1="818" x2="818" y1="609.0107" y2="641.0107"/><polygon fill="#A80036" points="814,631.0107,818,641.0107,822,631.0107,818,635.0107" style="stroke:#A80036;stroke-width:1.0;"/><line style="stroke:#A80036;stroke-width:1.5;" x1="663" x2="663" y1="700.9795" y2="720.9795"/><polygon fill="#A80036" points="659,710.9795,663,720.9795,667,710.9795,663,714.9795" style="stroke:#A80036;stroke-width:1.0;"/><line style="stroke:#A80036;stroke-width:1.5;" x1="887" x2="887" y1="700.9795" y2="720.9795"/><polygon fill="#A80036" points="883,710.9795,887,720.9795,891,710.9795,887,714.9795" style="stroke:#A80036;stroke-width:1.0;"/><line style="stroke:#A80036;stroke-width:1.5;" x1="1101" x2="1101" y1="700.9795" y2="720.9795"/><polygon fill="#A80036" points="1097,710.9795,1101,720.9795,1105,710.9795,1101,714.9795" style="stroke:#A80036;stroke-width:1.0;"/><line style="stroke:#A80036;stroke-width:1.5;" x1="818" x2="818" y1="674.9795" y2="694.9795"/><polygon fill="#A80036" points="814,684.9795,818,694.9795,822,684.9795,818,688.9795" style="stroke:#A80036;stroke-width:1.0;"/><line style="stroke:#A80036;stroke-width:1.5;" x1="1632" x2="1632" y1="808.917" y2="828.917"/><polygon fill="#A80036" points="1628,818.917,1632,828.917,1636,818.917,1632,822.917" style="stroke:#A80036;stroke-width:1.0;"/><line style="stroke:#A80036;stroke-width:1.5;" x1="1563.5" x2="1563.5" y1="834.917" y2="854.917"/><polygon fill="#A80036" points="1559.5,844.917,1563.5,854.917,1567.5,844.917,1563.5,848.917" style="stroke:#A80036;stroke-width:1.0;"/><line style="stroke:#A80036;stroke-width:1.5;" x1="169.5" x2="169.5" y1="166.6357" y2="177.2842"/><line style="stroke:#A80036;stroke-width:1.5;" x1="169.5" x2="818" y1="177.2842" y2="177.2842"/><line style="stroke:#A80036;stroke-width:1.5;" x1="818" x2="818" y1="177.2842" y2="212.9326"/><polygon fill="#A80036" points="814,202.9326,818,212.9326,822,202.9326,818,206.9326" style="stroke:#A80036;stroke-width:1.0;"/><line style="stroke:#A80036;stroke-width:1.5;" x1="663" x2="663" y1="754.9482" y2="759.9482"/><line style="stroke:#A80036;stroke-width:1.5;" x1="663" x2="1312" y1="759.9482" y2="759.9482"/><line style="stroke:#A80036;stroke-width:1.5;" x1="1312" x2="1312" y1="759.9482" y2="774.9482"/><polygon fill="#A80036" points="1308,764.9482,1312,774.9482,1316,764.9482,1312,768.9482" style="stroke:#A80036;stroke-width:1.0;"/><line style="stroke:#A80036;stroke-width:1.5;" x1="887" x2="887" y1="754.9482" y2="759.9482"/><line style="stroke:#A80036;stroke-width:1.5;" x1="887" x2="1458" y1="759.9482" y2="759.9482"/><line style="stroke:#A80036;stroke-width:1.5;" x1="1458" x2="1458" y1="759.9482" y2="774.9482"/><polygon fill="#A80036" points="1454,764.9482,1458,774.9482,1462,764.9482,1458,768.9482" style="stroke:#A80036;stroke-width:1.0;"/><line style="stroke:#A80036;stroke-width:1.5;" x1="1101" x2="1101" y1="754.9482" y2="759.9482"/><line style="stroke:#A80036;stroke-width:1.5;" x1="1101" x2="1632" y1="759.9482" y2="759.9482"/><line style="stroke:#A80036;stroke-width:1.5;" x1="1632" x2="1632" y1="759.9482" y2="774.9482"/><polygon fill="#A80036" points="1628,764.9482,1632,774.9482,1636,764.9482,1632,768.9482" style="stroke:#A80036;stroke-width:1.0;"/><line style="stroke:#A80036;stroke-width:1.5;" x1="1312" x2="1312" y1="808.917" y2="814.917"/><line style="stroke:#A80036;stroke-width:1.5;" x1="1312" x2="1547.5" y1="814.917" y2="814.917"/><line style="stroke:#A80036;stroke-width:1.5;" x1="1547.5" x2="1547.5" y1="814.917" y2="828.917"/><polygon fill="#A80036" points="1543.5,818.917,1547.5,828.917,1551.5,818.917,1547.5,822.917" style="stroke:#A80036;stroke-width:1.0;"/><line style="stroke:#A80036;stroke-width:1.5;" x1="1458" x2="1458" y1="808.917" y2="814.917"/><line style="stroke:#A80036;stroke-width:1.5;" x1="1458" x2="1579.5" y1="814.917" y2="814.917"/><line style="stroke:#A80036;stroke-width:1.5;" x1="1579.5" x2="1579.5" y1="814.917" y2="828.917"/><polygon fill="#A80036" points="1575.5,818.917,1579.5,828.917,1583.5,818.917,1579.5,822.917" style="stroke:#A80036;stroke-width:1.0;"/><text fill="#000000" font-family="sans-serif" font-size="18" lengthAdjust="spacing" textLength="44" x="207" y="29.4531">Main</text><text fill="#000000" font-family="sans-serif" font-size="18" lengthAdjust="spacing" textLength="72" x="806.75" y="29.4531">Pipeline</text><text fill="#000000" font-family="sans-serif" font-size="18" lengthAdjust="spacing" textLength="41" x="1293.5" y="29.4531">NPM</text><text fill="#000000" font-family="sans-serif" font-size="18" lengthAdjust="spacing" textLength="89" x="1415.5" y="29.4531">Codebase</text><text fill="#000000" font-family="sans-serif" font-size="18" lengthAdjust="spacing" textLength="21" x="1607.5" y="29.4531">IM</text><!--MD5=[ba9cdfab0504214b935d7d02298f3892]
@startuml
|Main|
start
:Generate changefile.json to codebase/master;
note right
  rush change
end note
|Main|
:Trigger Release Pipeline;
|Pipeline|
partition Initialization {
:Clone repository;
:Select target packages;
note right
  common/changes/changefile.json
end note
:Install dependencies for target packages;
note right
  rush install -t package1 -t package2
end note
:Build target packages;
note right
  rush build -t package1 -t package2
end note
}
:Checkout a new Branch;
|Pipeline|
partition VersionBump {
:Deleting change files and updating change logs for package updates;
:Applying package updates;
}
floating note: rush version
:Update lockfile;
fork
|Pipeline|
:Publish packages to NPM;
note left
  rush publish
end note
|NPM|
:Update packages;
fork again
|Pipeline|
:New Merge Request to Codebase;
|Codebase|
:Review and merge;
fork again
|Pipeline|
:Message to IM group;
|IM|
:Check result;
end fork
stop
@enduml

PlantUML version 1.2021.13beta8(Unknown compile time)
(GPL source distribution)
Java Runtime: Java(TM) SE Runtime Environment
JVM: Java HotSpot(TM) 64-Bit Server VM
Default Encoding: UTF-8
Language: en
Country: US
--></g></svg>