<?xml version="1.0" encoding="UTF-8" standalone="no"?><svg xmlns="http://www.w3.org/2000/svg" xmlns:xlink="http://www.w3.org/1999/xlink" contentScriptType="application/ecmascript" contentStyleType="text/css" height="250px" preserveAspectRatio="none" style="width:166px;height:250px;background:#FFFFFF;" version="1.1" viewBox="0 0 166 250" width="166px" zoomAndPan="magnify"><defs><filter height="300%" id="f1vltxio4vy8m6" width="300%" x="-1" y="-1"><feGaussianBlur result="blurOut" stdDeviation="2.0"/><feColorMatrix in="blurOut" result="blurOut2" type="matrix" values="0 0 0 0 0 0 0 0 0 0 0 0 0 0 0 0 0 0 .4 0"/><feOffset dx="4.0" dy="4.0" in="blurOut2" result="blurOut3"/><feBlend in="SourceGraphic" in2="blurOut3" mode="normal"/></filter></defs><g><ellipse cx="80" cy="20" fill="#000000" filter="url(#f1vltxio4vy8m6)" rx="10" ry="10" style="stroke:none;stroke-width:1.0;"/><rect fill="#FEFECE" filter="url(#f1vltxio4vy8m6)" height="33.9688" rx="12.5" ry="12.5" style="stroke:#A80036;stroke-width:1.5;" width="128" x="16" y="50"/><text fill="#000000" font-family="sans-serif" font-size="12" lengthAdjust="spacing" textLength="108" x="26" y="71.1387">获取变更的项目名称</text><rect fill="#FEFECE" filter="url(#f1vltxio4vy8m6)" height="33.9688" rx="12.5" ry="12.5" style="stroke:#A80036;stroke-width:1.5;" width="116" x="22" y="103.9688"/><text fill="#000000" font-family="sans-serif" font-size="12" lengthAdjust="spacing" textLength="96" x="32" y="125.1074">询问相关改动信息</text><rect fill="#FEFECE" filter="url(#f1vltxio4vy8m6)" height="33.9688" rx="12.5" ry="12.5" style="stroke:#A80036;stroke-width:1.5;" width="138" x="11" y="157.9375"/><text fill="#000000" font-family="sans-serif" font-size="12" lengthAdjust="spacing" textLength="118" x="21" y="179.0762">生成 changefile.json</text><ellipse cx="80" cy="222.9063" fill="#FFFFFF" filter="url(#f1vltxio4vy8m6)" rx="11" ry="11" style="stroke:#000000;stroke-width:1.0;"/><ellipse cx="80" cy="222.9063" fill="#000000" rx="6" ry="6" style="stroke:#7F7F7F;stroke-width:1.0;"/><line style="stroke:#A80036;stroke-width:1.5;" x1="80" x2="80" y1="30" y2="50"/><polygon fill="#A80036" points="76,40,80,50,84,40,80,44" style="stroke:#A80036;stroke-width:1.0;"/><line style="stroke:#A80036;stroke-width:1.5;" x1="80" x2="80" y1="83.9688" y2="103.9688"/><polygon fill="#A80036" points="76,93.9688,80,103.9688,84,93.9688,80,97.9688" style="stroke:#A80036;stroke-width:1.0;"/><line style="stroke:#A80036;stroke-width:1.5;" x1="80" x2="80" y1="137.9375" y2="157.9375"/><polygon fill="#A80036" points="76,147.9375,80,157.9375,84,147.9375,80,151.9375" style="stroke:#A80036;stroke-width:1.0;"/><line style="stroke:#A80036;stroke-width:1.5;" x1="80" x2="80" y1="191.9063" y2="211.9063"/><polygon fill="#A80036" points="76,201.9063,80,211.9063,84,201.9063,80,205.9063" style="stroke:#A80036;stroke-width:1.0;"/><!--MD5=[10c1da1593cbbc6a01200d670ecefeb3]
@startuml
start
:获取变更的项目名称;
:询问相关改动信息;
:生成 changefile.json;
stop
@enduml

PlantUML version 1.2021.13beta8(Unknown compile time)
(GPL source distribution)
Java Runtime: Java(TM) SE Runtime Environment
JVM: Java HotSpot(TM) 64-Bit Server VM
Default Encoding: UTF-8
Language: en
Country: US
--></g></svg>