<?xml version="1.0" encoding="UTF-8" standalone="no"?><svg xmlns="http://www.w3.org/2000/svg" xmlns:xlink="http://www.w3.org/1999/xlink" contentScriptType="application/ecmascript" contentStyleType="text/css" height="932px" preserveAspectRatio="none" style="width:772px;height:932px;background:#FFFFFF;" version="1.1" viewBox="0 0 772 932" width="772px" zoomAndPan="magnify"><defs><filter height="300%" id="f1atxdinufayf1" width="300%" x="-1" y="-1"><feGaussianBlur result="blurOut" stdDeviation="2.0"/><feColorMatrix in="blurOut" result="blurOut2" type="matrix" values="0 0 0 0 0 0 0 0 0 0 0 0 0 0 0 0 0 0 .4 0"/><feOffset dx="4.0" dy="4.0" in="blurOut2" result="blurOut3"/><feBlend in="SourceGraphic" in2="blurOut3" mode="normal"/></filter></defs><g><ellipse cx="211" cy="20" fill="#000000" filter="url(#f1atxdinufayf1)" rx="10" ry="10" style="stroke:none;stroke-width:1.0;"/><rect fill="#FFFFFF" filter="url(#f1atxdinufayf1)" height="301.3125" style="stroke:#000000;stroke-width:2.0;" width="744.5" x="11" y="40"/><path d="M77,40 L77,49.2969 L67,59.2969 L11,59.2969 " fill="none" style="stroke:#000000;stroke-width:2.0;"/><text fill="#000000" font-family="sans-serif" font-size="14" lengthAdjust="spacing" textLength="56" x="14" y="53.9951">开发阶段</text><rect fill="#FEFECE" filter="url(#f1atxdinufayf1)" height="33.9688" rx="12.5" ry="12.5" style="stroke:#A80036;stroke-width:1.5;" width="217" x="102.5" y="76.2969"/><text fill="#000000" font-family="sans-serif" font-size="12" lengthAdjust="spacing" textLength="197" x="112.5" y="97.4355">基于 master 分支拉取 feature 分支</text><path d="M421,188.6523 L421,197.2188 L401,201.2188 L421,205.2188 L421,213.7852 A0,0 0 0 0 421,213.7852 L521,213.7852 A0,0 0 0 0 521,213.7852 L521,198.6523 L511,188.6523 L421,188.6523 A0,0 0 0 0 421,188.6523 " fill="#FBFB77" filter="url(#f1atxdinufayf1)" style="stroke:#A80036;stroke-width:1.0;"/><path d="M511,188.6523 L511,198.6523 L521,198.6523 L511,188.6523 " fill="#FBFB77" style="stroke:#A80036;stroke-width:1.0;"/><text fill="#000000" font-family="sans-serif" font-size="13" lengthAdjust="spacing" textLength="79" x="427" y="205.7192">rush change</text><rect fill="#FEFECE" filter="url(#f1atxdinufayf1)" height="33.9688" rx="12.5" ry="12.5" style="stroke:#A80036;stroke-width:1.5;" width="380" x="21" y="184.2344"/><text fill="#000000" font-family="sans-serif" font-size="12" lengthAdjust="spacing" textLength="360" x="31" y="205.373">生成对应功能 changefile.json，推送至 codebase(feature 分支)</text><path d="M320.5,245.0469 L320.5,261.1797 L300.5,265.1797 L320.5,269.1797 L320.5,285.3125 A0,0 0 0 0 320.5,285.3125 L727.5,285.3125 A0,0 0 0 0 727.5,285.3125 L727.5,255.0469 L717.5,245.0469 L320.5,245.0469 A0,0 0 0 0 320.5,245.0469 " fill="#FBFB77" filter="url(#f1atxdinufayf1)" style="stroke:#A80036;stroke-width:1.0;"/><path d="M717.5,245.0469 L717.5,255.0469 L727.5,255.0469 L717.5,245.0469 " fill="#FBFB77" style="stroke:#A80036;stroke-width:1.0;"/><text fill="#000000" font-family="sans-serif" font-size="13" lengthAdjust="spacing" textLength="358" x="326.5" y="262.1138">- Trunk Based Development，细粒度，便于 Code Review</text><text fill="#000000" font-family="sans-serif" font-size="13" lengthAdjust="spacing" textLength="386" x="326.5" y="277.2466">- 此类开发模型需要统一固定仓库内发包时间，避免误发布正式版本</text><rect fill="#FEFECE" filter="url(#f1atxdinufayf1)" height="33.9688" rx="12.5" ry="12.5" style="stroke:#A80036;stroke-width:1.5;" width="179" x="121.5" y="248.1953"/><text fill="#000000" font-family="sans-serif" font-size="12" lengthAdjust="spacing" textLength="159" x="131.5" y="269.334">新建 MR 合并至 master 分支</text><rect fill="#FEFECE" filter="url(#f1atxdinufayf1)" height="33.9688" rx="12.5" ry="12.5" style="stroke:#A80036;stroke-width:1.5;" width="161" x="130.5" y="130.2656"/><text fill="#000000" font-family="sans-serif" font-size="12" lengthAdjust="spacing" textLength="141" x="140.5" y="151.4043">功能点开发(feature 分支)</text><polygon fill="#FEFECE" filter="url(#f1atxdinufayf1)" points="161.5,305.3125,260.5,305.3125,272.5,317.3125,260.5,329.3125,161.5,329.3125,149.5,317.3125,161.5,305.3125" style="stroke:#A80036;stroke-width:1.5;"/><text fill="#000000" font-family="sans-serif" font-size="11" lengthAdjust="spacing" textLength="99" x="161.5" y="321.1206">存在未完成功能点？</text><text fill="#000000" font-family="sans-serif" font-size="11" lengthAdjust="spacing" textLength="11" x="272.5" y="314.7183">是</text><rect fill="#FFFFFF" filter="url(#f1atxdinufayf1)" height="375.8511" style="stroke:#000000;stroke-width:2.0;" width="326" x="46.5" y="351.3125"/><path d="M112.5,351.3125 L112.5,360.6094 L102.5,370.6094 L46.5,370.6094 " fill="none" style="stroke:#000000;stroke-width:2.0;"/><text fill="#000000" font-family="sans-serif" font-size="14" lengthAdjust="spacing" textLength="56" x="49.5" y="365.3076">测试阶段</text><rect fill="#FEFECE" filter="url(#f1atxdinufayf1)" height="33.9688" rx="12.5" ry="12.5" style="stroke:#A80036;stroke-width:1.5;" width="261" x="80.5" y="387.6094"/><text fill="#000000" font-family="sans-serif" font-size="12" lengthAdjust="spacing" textLength="241" x="90.5" y="408.748">通过流水线发布测试版本(基于 feature 分支)</text><rect fill="#FEFECE" filter="url(#f1atxdinufayf1)" height="33.9688" rx="12.5" ry="12.5" style="stroke:#A80036;stroke-width:1.5;" width="74" x="174" y="497.2886"/><text fill="#000000" font-family="sans-serif" font-size="12" lengthAdjust="spacing" textLength="54" x="184" y="518.4272">修复 BUG</text><rect fill="#FEFECE" filter="url(#f1atxdinufayf1)" height="33.9688" rx="12.5" ry="12.5" style="stroke:#A80036;stroke-width:1.5;" width="179" x="121.5" y="551.2573"/><text fill="#000000" font-family="sans-serif" font-size="12" lengthAdjust="spacing" textLength="159" x="131.5" y="572.396">新建 MR 合并至 master 分支</text><rect fill="#FEFECE" filter="url(#f1atxdinufayf1)" height="33.9688" rx="12.5" ry="12.5" style="stroke:#A80036;stroke-width:1.5;" width="261" x="80.5" y="605.2261"/><text fill="#000000" font-family="sans-serif" font-size="12" lengthAdjust="spacing" textLength="241" x="90.5" y="626.3647">通过流水线发布测试版本(基于 feature 分支)</text><polygon fill="#FEFECE" filter="url(#f1atxdinufayf1)" points="180,441.5781,242,441.5781,254,453.5781,242,465.5781,180,465.5781,168,453.5781,180,441.5781" style="stroke:#A80036;stroke-width:1.5;"/><text fill="#000000" font-family="sans-serif" font-size="11" lengthAdjust="spacing" textLength="11" x="215" y="475.7886">是</text><text fill="#000000" font-family="sans-serif" font-size="11" lengthAdjust="spacing" textLength="62" x="180" y="457.3862">存在 BUG？</text><text fill="#000000" font-family="sans-serif" font-size="11" lengthAdjust="spacing" textLength="11" x="157" y="450.9839">否</text><rect fill="#FEFECE" filter="url(#f1atxdinufayf1)" height="33.9688" rx="12.5" ry="12.5" style="stroke:#A80036;stroke-width:1.5;" width="44" x="189" y="681.1948"/><text fill="#000000" font-family="sans-serif" font-size="12" lengthAdjust="spacing" textLength="24" x="199" y="702.3335">定版</text><rect fill="#FFFFFF" filter="url(#f1atxdinufayf1)" height="136.2344" style="stroke:#000000;stroke-width:2.0;" width="280" x="71" y="737.1636"/><path d="M137,737.1636 L137,746.4604 L127,756.4604 L71,756.4604 " fill="none" style="stroke:#000000;stroke-width:2.0;"/><text fill="#000000" font-family="sans-serif" font-size="14" lengthAdjust="spacing" textLength="56" x="74" y="751.1587">发布阶段</text><rect fill="#FEFECE" filter="url(#f1atxdinufayf1)" height="33.9688" rx="12.5" ry="12.5" style="stroke:#A80036;stroke-width:1.5;" width="260" x="81" y="773.4604"/><text fill="#000000" font-family="sans-serif" font-size="12" lengthAdjust="spacing" textLength="240" x="91" y="794.5991">通过流水线发布正式版本(基于 master 分支)</text><rect fill="#FEFECE" filter="url(#f1atxdinufayf1)" height="33.9688" rx="12.5" ry="12.5" style="stroke:#A80036;stroke-width:1.5;" width="247" x="87.5" y="827.4292"/><text fill="#000000" font-family="sans-serif" font-size="12" lengthAdjust="spacing" textLength="227" x="97.5" y="848.5679">将正式包发布自动生成的 MR 合入 master</text><ellipse cx="211" cy="904.3979" fill="#FFFFFF" filter="url(#f1atxdinufayf1)" rx="11" ry="11" style="stroke:#000000;stroke-width:1.0;"/><ellipse cx="211" cy="904.3979" fill="#000000" rx="6" ry="6" style="stroke:#7F7F7F;stroke-width:1.0;"/><line style="stroke:#A80036;stroke-width:1.5;" x1="211" x2="211" y1="218.2031" y2="248.1953"/><polygon fill="#A80036" points="207,238.1953,211,248.1953,215,238.1953,211,242.1953" style="stroke:#A80036;stroke-width:1.0;"/><line style="stroke:#A80036;stroke-width:1.5;" x1="211" x2="211" y1="164.2344" y2="184.2344"/><polygon fill="#A80036" points="207,174.2344,211,184.2344,215,174.2344,211,178.2344" style="stroke:#A80036;stroke-width:1.0;"/><line style="stroke:#A80036;stroke-width:1.5;" x1="272.5" x2="739.5" y1="317.3125" y2="317.3125"/><polygon fill="#A80036" points="735.5,238.2031,739.5,228.2031,743.5,238.2031,739.5,234.2031" style="stroke:#A80036;stroke-width:1.5;"/><line style="stroke:#A80036;stroke-width:1.5;" x1="739.5" x2="739.5" y1="147.25" y2="317.3125"/><line style="stroke:#A80036;stroke-width:1.5;" x1="739.5" x2="291.5" y1="147.25" y2="147.25"/><polygon fill="#A80036" points="301.5,143.25,291.5,147.25,301.5,151.25,297.5,147.25" style="stroke:#A80036;stroke-width:1.0;"/><line style="stroke:#A80036;stroke-width:1.5;" x1="211" x2="211" y1="282.1641" y2="305.3125"/><polygon fill="#A80036" points="207,295.3125,211,305.3125,215,295.3125,211,299.3125" style="stroke:#A80036;stroke-width:1.0;"/><line style="stroke:#A80036;stroke-width:1.5;" x1="211" x2="211" y1="110.2656" y2="130.2656"/><polygon fill="#A80036" points="207,120.2656,211,130.2656,215,120.2656,211,124.2656" style="stroke:#A80036;stroke-width:1.0;"/><line style="stroke:#A80036;stroke-width:1.5;" x1="211" x2="211" y1="30" y2="76.2969"/><polygon fill="#A80036" points="207,66.2969,211,76.2969,215,66.2969,211,70.2969" style="stroke:#A80036;stroke-width:1.0;"/><line style="stroke:#A80036;stroke-width:1.5;" x1="211" x2="211" y1="531.2573" y2="551.2573"/><polygon fill="#A80036" points="207,541.2573,211,551.2573,215,541.2573,211,545.2573" style="stroke:#A80036;stroke-width:1.0;"/><line style="stroke:#A80036;stroke-width:1.5;" x1="211" x2="211" y1="585.2261" y2="605.2261"/><polygon fill="#A80036" points="207,595.2261,211,605.2261,215,595.2261,211,599.2261" style="stroke:#A80036;stroke-width:1.0;"/><line style="stroke:#A80036;stroke-width:1.5;" x1="211" x2="211" y1="465.5781" y2="497.2886"/><polygon fill="#A80036" points="207,487.2886,211,497.2886,215,487.2886,211,491.2886" style="stroke:#A80036;stroke-width:1.0;"/><line style="stroke:#A80036;stroke-width:1.5;" x1="211" x2="211" y1="639.1948" y2="649.1948"/><line style="stroke:#A80036;stroke-width:1.5;" x1="211" x2="353.5" y1="649.1948" y2="649.1948"/><polygon fill="#A80036" points="349.5,559.8394,353.5,549.8394,357.5,559.8394,353.5,555.8394" style="stroke:#A80036;stroke-width:1.5;"/><line style="stroke:#A80036;stroke-width:1.5;" x1="353.5" x2="353.5" y1="453.5781" y2="649.1948"/><line style="stroke:#A80036;stroke-width:1.5;" x1="353.5" x2="254" y1="453.5781" y2="453.5781"/><polygon fill="#A80036" points="264,449.5781,254,453.5781,264,457.5781,260,453.5781" style="stroke:#A80036;stroke-width:1.0;"/><line style="stroke:#A80036;stroke-width:1.5;" x1="168" x2="68.5" y1="453.5781" y2="453.5781"/><polygon fill="#A80036" points="64.5,545.8394,68.5,555.8394,72.5,545.8394,68.5,549.8394" style="stroke:#A80036;stroke-width:1.5;"/><line style="stroke:#A80036;stroke-width:1.5;" x1="68.5" x2="68.5" y1="453.5781" y2="661.1948"/><line style="stroke:#A80036;stroke-width:1.5;" x1="68.5" x2="211" y1="661.1948" y2="661.1948"/><line style="stroke:#A80036;stroke-width:1.5;" x1="211" x2="211" y1="661.1948" y2="681.1948"/><polygon fill="#A80036" points="207,671.1948,211,681.1948,215,671.1948,211,675.1948" style="stroke:#A80036;stroke-width:1.0;"/><line style="stroke:#A80036;stroke-width:1.5;" x1="211" x2="211" y1="421.5781" y2="441.5781"/><polygon fill="#A80036" points="207,431.5781,211,441.5781,215,431.5781,211,435.5781" style="stroke:#A80036;stroke-width:1.0;"/><line style="stroke:#A80036;stroke-width:1.5;" x1="211" x2="211" y1="329.3125" y2="387.6094"/><polygon fill="#A80036" points="207,377.6094,211,387.6094,215,377.6094,211,381.6094" style="stroke:#A80036;stroke-width:1.0;"/><line style="stroke:#A80036;stroke-width:1.5;" x1="211" x2="211" y1="807.4292" y2="827.4292"/><polygon fill="#A80036" points="207,817.4292,211,827.4292,215,817.4292,211,821.4292" style="stroke:#A80036;stroke-width:1.0;"/><line style="stroke:#A80036;stroke-width:1.5;" x1="211" x2="211" y1="715.1636" y2="773.4604"/><polygon fill="#A80036" points="207,763.4604,211,773.4604,215,763.4604,211,767.4604" style="stroke:#A80036;stroke-width:1.0;"/><line style="stroke:#A80036;stroke-width:1.5;" x1="211" x2="211" y1="861.3979" y2="893.3979"/><polygon fill="#A80036" points="207,883.3979,211,893.3979,215,883.3979,211,887.3979" style="stroke:#A80036;stroke-width:1.0;"/><!--MD5=[332f97e2ca78da554ebf0da87c7c5383]
@startuml
start
partition 开发阶段 {
  :基于 master 分支拉取 feature 分支;
  repeat :功能点开发(feature 分支);
  :生成对应功能 changefile.json，推送至 codebase(feature 分支);
  note right
  rush change
  end note
  :新建 MR 合并至 master 分支;
  note right
  - Trunk Based Development，细粒度，便于 Code Review
  - 此类开发模型需要统一固定仓库内发包时间，避免误发布正式版本
  end note
  repeat while(存在未完成功能点？) is (是)
}
partition 测试阶段 {
  :通过流水线发布测试版本(基于 feature 分支);
  while(存在 BUG？) is (是)
  :修复 BUG;
  :新建 MR 合并至 master 分支;
  :通过流水线发布测试版本(基于 feature 分支);
  end while(否)
  :定版;
}
partition 发布阶段 {
  :通过流水线发布正式版本(基于 master 分支);
  :将正式包发布自动生成的 MR 合入 master;
}
stop
@enduml

PlantUML version 1.2021.15beta3(Unknown compile time)
(GPL source distribution)
Java Runtime: Java(TM) SE Runtime Environment
JVM: Java HotSpot(TM) 64-Bit Server VM
Default Encoding: UTF-8
Language: en
Country: US
--></g></svg>